#!OML:ASF H:\Dans Jumps\Project 1\Capture day 1\Session 1\subject.ASF
:FULLY-SPECIFIED
:DEGREES
382
root 0.491198 17.8737 -1.61609 8.79462 1.5766 -1.76368
lowerback -0.845395 -0.484835 -0.754399
upperback 2.22055 -0.679264 2.04117
thorax 2.78785 -0.380054 2.49962
lowerneck -11.2735 -0.425059 -1.72203
upperneck 33.9002 -0.360167 0.519115
head 13.2509 -0.306893 0.456447
rclavicle 1.3418e-015 -1.35174e-014
rhumerus -24.5441 -8.65891 -81.5086
rradius 29.4171
rwrist 29.7826
rhand -23.0645 -28.136
rfingers 7.12502
rthumb 3.38083 -58.0889
lclavicle 1.3418e-015 -1.35174e-014
lhumerus -24.2916 1.45603 84.7698
lradius 18.6841
lwrist 15.9396
lhand -26.4219 -9.13844
lfingers 7.12502
lthumb 0.138214 20.8413
rfemur -15.5309 -1.19801 20.1583
rtibia 20.7307
rfoot -10.9836 -0.191771
rtoes 16.4207
lfemur -14.7717 6.80463 -17.813
ltibia 21.2088
lfoot -9.20538 1.88736
ltoes 2.3736
383
root 0.485019 17.8513 -1.58251 8.79782 1.63586 -1.74794
lowerback -0.827338 -0.485037 -0.804206
upperback 2.24606 -0.677718 2.00182
thorax 2.80399 -0.380224 2.48718
lowerneck -11.345 -0.423164 -1.71092
upperneck 34.0109 -0.382839 0.591289
head 13.3149 -0.306368 0.479974
rclavicle -3.03147e-015 2.62396e-014
rhumerus -24.144 -9.52375 -81.4037
rradius 28.887
rwrist 30.5458
rhand -23.0927 -28.2225
rfingers 7.12502
rthumb 3.35362 -58.1759
lclavicle -3.03147e-015 2.62396e-014
lhumerus -24.3789 2.37057 84.3357
lradius 17.9997
lwrist 14.9438
lhand -26.4034 -8.92623
lfingers 7.12502
lthumb 0.15613 21.0535
rfemur -15.3809 -1.32157 20.1517
rtibia 20.7007
rfoot -11.3448 -0.0368141
rtoes 16.3771
lfemur -14.4328 6.95192 -17.8647
ltibia 20.8276
lfoot -9.55135 2.07179
ltoes 2.85327
384
root 0.47841 17.8329 -1.55094 8.81835 1.69884 -1.71548
lowerback -0.81659 -0.489259 -0.874544
upperback 2.26972 -0.680995 1.95979
thorax 2.82282 -0.383246 2.48332
lowerneck -11.4132 -0.420667 -1.69567
upperneck 34.1138 -0.408892 0.671582
head 13.3751 -0.305664 0.505547
rclavicle 3.8266e-015 3.18055e-015
rhumerus -23.7409 -10.465 -81.3019
rradius 28.3543
rwrist 31.3086
rhand -23.1247 -28.3089
rfingers 7.12502
rthumb 3.32263 -58.2627
lclavicle 3.8266e-015 3.18055e-015
lhumerus -24.4389 3.46027 83.8429
lradius 17.2754
lwrist 13.6434
lhand -26.3827 -8.72172
lfingers 7.12502
lthumb 0.176079 21.2579
rfemur -15.2775 -1.44361 20.1371
rtibia 20.7137
rfoot -11.6662 0.0741872
rtoes 16.3386
lfemur -14.1428 7.05807 -17.9303
ltibia 20.4784
lfoot -9.8256 2.26339
ltoes 3.32466
385
root 0.471153 17.8191 -1.52108 8.85089 1.77264 -1.67709
lowerback -0.811178 -0.497486 -0.957724
upperback 2.29263 -0.689355 1.91978
thorax 2.84436 -0.389154 2.48856
lowerneck -11.4629 -0.420119 -1.68114
upperneck 34.2 -0.442289 0.763618
head 13.4242 -0.306615 0.534853
rclavicle -9.54166e-015 1.21259e-014
rhumerus -23.3514 -11.4606 -81.2067
rradius 27.8387
rwrist 32.0315
rhand -23.1564 -28.3886
rfingers 7.12502
rthumb 3.29209 -58.3429
lclavicle -9.54166e-015 1.21259e-014
lhumerus -24.4869 4.70615 83.3015
lradius 16.5367
lwrist 12.121
lhand -26.392 -8.51341
lfingers 7.12502
lthumb 0.167129 21.4663
rfemur -15.2081 -1.5565 20.1256
rtibia 20.7555
rfoot -11.9366 0.133504
rtoes 16.3566
lfemur -13.8968 7.10804 -17.9945
ltibia 20.1611
lfoot -10.0228 2.45812
ltoes 3.74416
386
root 0.463132 17.8101 -1.49241 8.89139 1.8661 -1.64677
lowerback -0.812744 -0.509527 -1.04072
upperback 2.31546 -0.702969 1.88747
thorax 2.87016 -0.397839 2.50143
lowerneck -11.4904 -0.42443 -1.66151
upperneck 34.2669 -0.48412 0.853864
head 13.4602 -0.310692 0.561325
rclavicle -7.20594e-015 3.97569e-016
rhumerus -22.9946 -12.4669 -81.1235
rradius 27.3679
rwrist 32.6624
rhand -23.1898 -28.4522
rfingers 7.12502
rthumb 3.25979 -58.407
lclavicle -7.20594e-015 3.97569e-016
lhumerus -24.5398 6.06854 82.7262
lradius 15.801
lwrist 10.4758
lhand -26.432 -8.40434
lfingers 7.12502
lthumb 0.128536 21.5754
rfemur -15.1548 -1.65893 20.1318
rtibia 20.8027
rfoot -12.1471 0.138547
rtoes 16.3924
lfemur -13.6943 7.08465 -18.0381
ltibia 19.8853
lfoot -10.1424 2.65758
ltoes 4.05758
387
root 0.454455 17.8059 -1.46457 8.93713 1.97568 -1.64857
lowerback -0.821861 -0.52177 -1.09857
upperback 2.3398 -0.717763 1.87009
thorax 2.90175 -0.406819 2.51543
lowerneck -11.4995 -0.434839 -1.6393
upperneck 34.3179 -0.533819 0.937882
head 13.4855 -0.318556 0.583716
rclavicle 1.32192e-014 4.96962e-015
rhumerus -22.6857 -13.4289 -81.0594
rradius 26.9696
rwrist 33.1685
rhand -23.2198 -28.5028
rfingers 7.12502
rthumb 3.23083 -58.458
lclavicle 1.32192e-014 4.96962e-015
lhumerus -24.6086 7.50089 82.1346
lradius 15.0905
lwrist 8.7967
lhand -26.5196 -8.43939
lfingers 7.12502
lthumb 0.043903 21.5403
rfemur -15.1022 -1.74494 20.179
rtibia 20.8287
rfoot -12.2901 0.100523
rtoes 16.4216
lfemur -13.5363 6.9862 -18.0316
ltibia 19.6632
lfoot -10.1936 2.85661
ltoes 4.29458
388
root 0.445121 17.8058 -1.4374 8.9901 2.10058 -1.69474
lowerback -0.845327 -0.531551 -1.1188
upperback 2.36423 -0.730561 1.87159
thorax 2.9412 -0.414266 2.5277
lowerneck -11.4811 -0.451844 -1.61873
upperneck 34.3464 -0.591053 1.01599
head 13.495 -0.330564 0.602888
rclavicle 1.12313e-014 -9.93923e-015
rhumerus -22.435 -14.3075 -81.0161
rradius 26.6572
rwrist 33.5438
rhand -23.2447 -28.5287
rfingers 7.12502
rthumb 3.20674 -58.4843
lclavicle 1.12313e-014 -9.93923e-015
lhumerus -24.7056 8.93808 81.5498
lradius 14.4304
lwrist 7.18748
lhand -26.6429 -8.66027
lfingers 7.12502
lthumb -0.0751455 21.3195
rfemur -15.0398 -1.80767 20.2779
rtibia 20.8115
rfoot -12.3647 0.0302588
rtoes 16.4585
lfemur -13.4315 6.82527 -17.961
ltibia 19.5055
lfoot -10.1883 3.04547
ltoes 4.45901
389
root 0.435405 17.8094 -1.41061 9.0521 2.23177 -1.77397
lowerback -0.888398 -0.536249 -1.1083
upperback 2.38706 -0.737579 1.88622
thorax 2.98952 -0.418354 2.53627
lowerneck -11.4437 -0.47441 -1.59366
upperneck 34.3618 -0.653658 1.08229
head 13.4947 -0.345796 0.615769
rclavicle -1.01877e-014 3.77691e-015
rhumerus -22.2556 -15.0433 -81.0031
rradius 26.4509
rwrist 33.7718
rhand -23.2603 -28.537
rfingers 7.12502
rthumb 3.1917 -58.4928
lclavicle -1.01877e-014 3.77691e-015
lhumerus -24.8476 10.2745 81.0025
lradius 13.856
lwrist 5.75018
lhand -26.7687 -8.97341
lfingers 7.12502
lthumb -0.19667 21.0062
rfemur -14.9645 -1.85008 20.4126
rtibia 20.7402
rfoot -12.3726 -0.0504517
rtoes 16.5329
lfemur -13.3772 6.6239 -17.841
ltibia 19.4122
lfoot -10.1472 3.21248
ltoes 4.60072
390
root 0.425534 17.816 -1.38401 9.12369 2.36127 -1.88319
lowerback -0.954423 -0.534705 -1.06724
upperback 2.40942 -0.737294 1.91149
thorax 3.04967 -0.418308 2.53872
lowerneck -11.397 -0.50178 -1.56691
upperneck 34.3696 -0.71996 1.13777
head 13.489 -0.36378 0.623517
rclavicle -1.49089e-016 1.76918e-014
rhumerus -22.1423 -15.6046 -81.0257
rradius 26.3499
rwrist 33.8629
rhand -23.2642 -28.5267
rfingers 7.12502
rthumb 3.18798 -58.4826
lclavicle -1.49089e-016 1.76918e-014
lhumerus -25.0303 11.4028 80.5315
lradius 13.3945
lwrist 4.59864
lhand -26.8907 -9.35504
lfingers 7.12502
lthumb -0.314492 20.6245
rfemur -14.8813 -1.87943 20.5787
rtibia 20.6203
rfoot -12.3192 -0.123471
rtoes 16.6306
lfemur -13.3644 6.41283 -17.6777
ltibia 19.3664
lfoot -10.0789 3.34237
ltoes 4.74002
391
root 0.415645 17.8253 -1.35756 9.2089 2.47948 -1.99878
lowerback -1.04691 -0.527215 -1.01541
upperback 2.42914 -0.729454 1.9382
thorax 3.12152 -0.414309 2.5367
lowerneck -11.3455 -0.531597 -1.54526
upperneck 34.3702 -0.78755 1.19084
head 13.4793 -0.383275 0.63101
rclavicle 2.73329e-015 5.96354e-016
rhumerus -22.0917 -15.9722 -81.0889
rradius 26.3437
rwrist 33.8343
rhand -23.2603 -28.5043
rfingers 7.12502
rthumb 3.19174 -58.4602
lclavicle 2.73329e-015 5.96354e-016
lhumerus -25.2567 12.1988 80.1816
lradius 13.0839
lwrist 3.85629
lhand -26.9362 -9.63457
lfingers 7.12502
lthumb -0.358427 20.3449
rfemur -14.8039 -1.90277 20.7504
rtibia 20.4682
rfoot -12.2149 -0.177591
rtoes 16.7573
lfemur -13.3775 6.21997 -17.5012
ltibia 19.3354
lfoot -9.98803 3.42219
ltoes 4.88405
392
root 0.405919 17.8368 -1.33146 9.31137 2.5792 -2.09845
lowerback -1.16085 -0.512717 -0.968227
upperback 2.44016 -0.711937 1.95552
thorax 3.19593 -0.405385 2.52789
lowerneck -11.306 -0.563328 -1.5183
upperneck 34.3837 -0.855987 1.23479
head 13.4778 -0.403622 0.633923
rclavicle -5.41688e-015 6.75868e-015
rhumerus -22.1097 -16.1341 -81.1957
rradius 26.4336
rwrist 33.69
rhand -23.2427 -28.4689
rfingers 7.12502
rthumb 3.20872 -58.4245
lclavicle -5.41688e-015 6.75868e-015
lhumerus -25.5215 12.5677 79.9853
lradius 12.932
lwrist 3.59507
lhand -26.9027 -9.78532
lfingers 7.12502
lthumb -0.326096 20.1942
rfemur -14.7473 -1.92942 20.9041
rtibia 20.3043
rfoot -12.0744 -0.208483
rtoes 16.8678
lfemur -13.3992 6.0582 -17.3393
ltibia 19.2851
lfoot -9.87371 3.45097
ltoes 5.02802
393
root 0.39656 17.8504 -1.30562 9.42741 2.65287 -2.16036
lowerback -1.29255 -0.493438 -0.945227
upperback 2.44483 -0.686978 1.95704
thorax 3.27357 -0.393086 2.51664
lowerneck -11.2821 -0.594233 -1.49588
upperneck 34.4101 -0.920606 1.27502
head 13.4854 -0.423347 0.636796
rclavicle -1.2921e-015 1.0138e-014
rhumerus -22.1781 -16.1069 -81.3442
rradius 26.5914
rwrist 33.464
rhand -23.2243 -28.4226
rfingers 7.12502
rthumb 3.22649 -58.378
lclavicle -1.2921e-015 1.0138e-014
lhumerus -25.816 12.5085 79.9502
lradius 12.9287
lwrist 3.78975
lhand -26.8037 -9.82616
lfingers 7.12502
lthumb -0.230511 20.1535
rfemur -14.718 -1.96945 21.0151
rtibia 20.1529
rfoot -11.9124 -0.204084
rtoes 16.9616
lfemur -13.4059 5.93993 -17.2189
ltibia 19.1818
lfoot -9.73465 3.42424
ltoes 5.16973
